<svg width="1600" height="420" viewBox="0 0 1600 420" fill="none" xmlns="http://www.w3.org/2000/svg">

<defs>

<linearGradient id="bg" x1="0" y1="0" x2="1" y2="1">
<stop offset="0%" stop-color="#FFE761"/>
<stop offset="25%" stop-color="#FFF5AF"/>
<stop offset="55%" stop-color="#FFFDF2"/>
<stop offset="78%" stop-color="#E9D6FF"/>
<stop offset="100%" stop-color="#C59BFF"/>
</linearGradient>

<radialGradient id="butter">
<stop offset="0%" stop-color="#FFF9D4"/>
<stop offset="100%" stop-color="#FFF9D4" stop-opacity="0"/>
</radialGradient>

<radialGradient id="lavender">
<stop offset="0%" stop-color="#E9D7FF"/>
<stop offset="100%" stop-color="#E9D7FF" stop-opacity="0"/>
</radialGradient>

<filter id="blur" x="-50%" y="-50%" width="200%" height="200%">
<feGaussianBlur stdDeviation="45"/>
</filter>

<filter id="glass">
<feGaussianBlur stdDeviation="10"/>
</filter>

</defs>

<!-- Background -->

<rect width="1600" height="420" rx="38" fill="url(#bg)"/>

<!-- Large Blobs -->

<circle cx="180" cy="120" r="180" fill="url(#butter)" filter="url(#blur)"/>

<circle cx="1440" cy="90" r="220" fill="url(#lavender)" filter="url(#blur)"/>

<circle cx="1340" cy="360" r="180" fill="url(#lavender)" filter="url(#blur)"/>

<circle cx="430" cy="360" r="170" fill="url(#butter)" filter="url(#blur)"/>

<!-- Floating Glass Cards -->

<rect
x="115"
y="285"
width="110"
height="110"
rx="26"
fill="white"
fill-opacity=".28"
stroke="white"
stroke-opacity=".55"/>

<rect
x="1290"
y="70"
width="115"
height="115"
rx="26"
fill="white"
fill-opacity=".22"
stroke="white"
stroke-opacity=".45"/>

<rect
x="1325"
y="270"
width="125"
height="125"
rx="28"
fill="white"
fill-opacity=".20"
stroke="white"
stroke-opacity=".45"/>

<!-- Decorative Dots -->

<g opacity=".55">

<circle cx="90" cy="70" r="4" fill="white"/>
<circle cx="120" cy="70" r="4" fill="white"/>
<circle cx="150" cy="70" r="4" fill="white"/>
<circle cx="180" cy="70" r="4" fill="white"/>

<circle cx="1465" cy="320" r="4" fill="white"/>
<circle cx="1495" cy="320" r="4" fill="white"/>
<circle cx="1525" cy="320" r="4" fill="white"/>

</g>

<!-- Sparkles -->

<g fill="white">

<path d="M250 95L255 108L268 113L255 118L250 131L245 118L232 113L245 108Z"/>

<path d="M1340 230L1344 240L1354 244L1344 248L1340 258L1336 248L1326 244L1336 240Z"/>

<path d="M470 320L474 330L484 334L474 338L470 348L466 338L456 334L466 330Z"/>

<path d="M1170 85L1174 95L1184 99L1174 103L1170 113L1166 103L1156 99L1166 95Z"/>

</g>

<!-- Main Heading -->

<text
x="800"
y="165"
text-anchor="middle"
font-size="74"
font-family="Georgia, Times New Roman, serif"
font-weight="700"
fill="#4A347B">

Rythma Reddy Lakkady

</text>

<!-- Glass Pill -->

<rect
x="460"
y="198"
width="680"
height="58"
rx="29"
fill="white"
fill-opacity=".35"
stroke="white"
stroke-opacity=".75"/>

<text
x="800"
y="236"
text-anchor="middle"
font-size="24"
font-family="Inter, Segoe UI, sans-serif"
font-weight="600"
letter-spacing="2"
fill="#4D3B75">

BUILDING PRACTICAL SOFTWARE SOLUTIONS

</text>

<!-- Bottom Chips -->

<g>

<rect x="360" y="305" width="230" height="52" rx="26" fill="white" fill-opacity=".30"/>

<text
x="475"
y="338"
text-anchor="middle"
font-size="18"
font-family="Inter"
fill="#4A347B">

AI Applications

</text>

<rect x="680" y="305" width="250" height="52" rx="26" fill="white" fill-opacity=".30"/>

<text
x="805"
y="338"
text-anchor="middle"
font-size="18"
font-family="Inter"
fill="#4A347B">

Backend Engineering

</text>

<rect x="1015" y="305" width="255" height="52" rx="26" fill="white" fill-opacity=".30"/>

<text
x="1142"
y="338"
text-anchor="middle"
font-size="18"
font-family="Inter"
fill="#4A347B">

Full-Stack Development

</text>

</g>

<!-- Border -->

<rect
x="2"
y="2"
width="1596"
height="416"
rx="36"
stroke="white"
stroke-opacity=".45"
stroke-width="2"/>

</svg>
